<?xml version="1.0" encoding="utf-8"?>
<!-- Generator: Adobe Illustrator 27.5.0, SVG Export Plug-In . SVG Version: 6.00 Build 0)  -->
<svg version="1.1" id="Layer_1" xmlns="http://www.w3.org/2000/svg" xmlns:xlink="http://www.w3.org/1999/xlink" x="0px" y="0px"
	 viewBox="0 0 1080 2607" style="enable-background:new 0 0 1080 2607;" xml:space="preserve">
<style type="text/css">
	.st0{fill:#E7EFF9;}
	.st1{fill:none;stroke:#000000;stroke-miterlimit:10;}
	.st2{fill:none;stroke:#000000;}
	.st3{fill:#FFFFFF;filter:url(#Adobe_OpacityMaskFilter);}
	
		.st4{mask:url(#path-1-inside-1_324_2186_00000176025933289145314860000002741126116633388195_);fill:none;stroke:#000000;stroke-width:2;}
</style>
<rect x="558" class="st0" width="445" height="2562"/>
<path id="Boat" class="st1" d="M723.2,405.5h160.4c0,0-4.4,27-27.1,30.5h-99.8C756.7,436,724.9,433.4,723.2,405.5z"/>
<polyline id="Sail" class="st1" points="803.5,405.3 803.5,286.5 854.6,367.4 803.5,367.6 "/>
<path id="Line" class="st2" d="M761.5,405.5c0,0,2.4-57.4-31-56c-37,1.5-37,41.2-37,41.2c-2,33.6,19.5,258.4-128,258.7
	c-95.5,0.2-315-193.1-364-24.7c-28,109.2,97.6,314,363,184.7c265.4-129.3,334.2,97.9,314,168.2c-12.8,64.2-87.8,52.2-274,62.3
	c-145.5,7.9-273.9,7.1-347,41.6c-43.8,20.7-69,63-68,100c6,91,63,177,175,174c93,1.2,354-36,463-14c35,8,62.4,67.9,51,166
	c-10,86.3-168.3,99.6-213,96c-121.1-9.7-440,7.6-461,108c-15.6,53.4,6.6,158.3,95,154c132-7,347.8,54.1,466,77s15,158-25,160
	c-76,10-200-21-237,30c-29,40-56,145-107,128c-79-54.9-249.7,72.7-182,134c54.2,49,356.4,17.3,434,0"/>
<defs>
	<filter id="Adobe_OpacityMaskFilter" filterUnits="userSpaceOnUse" x="601.5" y="2284.5" width="277.9" height="222.5">
		<feColorMatrix  type="matrix" values="1 0 0 0 0  0 1 0 0 0  0 0 1 0 0  0 0 0 1 0"/>
	</filter>
</defs>
<mask maskUnits="userSpaceOnUse" x="601.5" y="2284.5" width="277.9" height="222.5" id="path-1-inside-1_324_2186_00000176025933289145314860000002741126116633388195_">
	<path class="st3" d="M761.2,2423.9c3.7-0.6,6.5-2.7,8.9-6.5c4.8-7.6,10.1-14.6,17-19.8c3.2-2.4,4.7-6.6,4.2-11.4
		c-0.6-5.6,0.1-7.3,4.7-9.2c4.2-1.7,8.6-2.8,12.6-5.1c5.8-3.3,11.2-7.6,16.9-11.1c5.2-3.3,10.4-6.6,15.9-9.2
		c9.3-4.3,18.6-7.8,28-11.8c1.7-0.7,2.5-0.6,3.3,1.6c1.1,2.8,2.7,5.5,4.3,8.2c1.8,3.1,1.9,6,0.2,9.3c-2.2,4.3-4.2,8.7-6.4,12.9
		c-0.4,0.7-1.6,1.2-2.4,1.3c-15.6,0.4-30.9,2.9-46.1,6.3c-2.3,0.5-4.6,1-6.9,1.6c-3.5,0.9-6.8,2.6-9.4,5.9c-1.6,2-3.7,3.2-5.4,5
		c-1.2,1.2-2.4,2.7-3.2,4.3c-4.4,8.7-8.7,17.2-12.7,26.1c-4.3,9.8-10.4,15.5-20,16.7c-10.6,1.5-21,4-31.5,6.1
		c-3,0.6-8.5,3.4-11.9,4.6c-0.3,0.1-11.6,4.5-22.2,6c-7.7,1.1-14.4,2.8-21.7,0c-1.9-0.7-3.6,4.2-5.2,6.1c-2,2.6-4.9,4.3-7.7,5.7
		c-2,1.1-3.1,2-3.1,4.9c-0.1,5-3,7.7-6.7,9.3c-7.1,2.9-14,5.9-21.2,8.5c-5.5,2-10,5.5-13.4,10.7c-0.8,1.2-3.5,0.9-3.6-0.2
		c-0.2-1-0.3-2.4-0.8-2.7c-0.7-0.2-2,0-2.6,0.6c-1.7,1.5-3.2,3.3-4.9,4.9c-0.9,0.9-1.9,1.7-2.9,2.1c-2.2,0.7-3.5-0.9-2.5-3.1
		c1.6-3.4,3.7-6.3,5.6-9.5c2.1-3.4,4.9-4.3,8.3-4.4c5.2-0.2,9.9-2.3,14.2-5.9c5.4-4.5,10.9-9,17.7-10.7c0.4-0.1,0.8-0.5,1.9-1.1
		c-1.2-0.9-2-1.6-2.8-2c-7.9-3.5-13.9-9.6-18.2-18.2c-0.4-1-1.6-1.5-2.4-2.1c-0.5-0.4-1.1-0.2-1.7-0.6c-1.5-1.1-2.3-6-1.4-7.3
		c0.9-1.2-1.7-3.9-3.8-3.8c-4.4,0-4.9-1.7-6.1-6c-0.7-2.4-2-4,0.2-5.2c1.6-0.9,1.2-2.1,0.9-3.9c-0.6-3.9-0.5-7.8,1.1-11.1
		c5.1-10.6,12.4-11.8,19.8-6.3c1.5,1.1,2.3,2.9,4.1,5.1c-0.4-2.4-0.8-3.9-0.8-5.4c0.1-6.5,4.1-11.4,9.7-11.6c2.2-0.1,3.5-0.5,4-3.5
		c0.4-3.7,5-7,9.5-7.1c6.7-0.1,13.4,0.2,20.1,0.5c14.1,0.5,28.3,1.2,42.4,1.7c6.3,0.2,7.2,1.1,7,8.5c-0.1,3.8-0.4,7.4-0.7,11.2
		c-0.3,4.5-1.6,5.7-5.4,5.6c-11.4-0.4-22.9-0.7-34.2-1.1c-1.2,0-2.4,0-3.6,0.5c6.5,2.8,12.7,10,20.2,8.1c10.2-2.7,20.7-6.5,31.1-5.1
		c3.1,0.4,6.1,0.5,9.3,0.9c2,0.2,3.3-0.7,3.6-2.9c1-9.4,6.8-15.1,11.6-21.5c2.7-3.5,5.7-6.7,8.5-10.3c0.8-1,1.2-2.7,1.2-4.1
		c0-3.3-0.4-6.6-0.6-9.9c-0.2-2.7,0.6-4.9,2.6-6.5c7.5-6,12.7-14.4,17.7-22.9c5.4-9.3,10.2-19.2,16-28.1c4.8-7.4,10.5-14,15.9-20.9
		c0.4-0.5,2.2-0.4,2.3-0.1c1.4,4,4.8,5.1,7.5,7.3c0.3,0.2,0.6,0.5,0.9,0.7c4,2.3,6,5.5,4.7,11.1c-0.6,2.3-0.1,5.2,0.3,7.7
		c0.3,2.1-0.3,2.7-1.7,3.7c-15.9,11.1-32.2,21.4-45.6,36.6c-5,5.6-7.3,12.9-10,20.3c-4.5,12-9,23.9-13.9,35.6
		C766.7,2413.9,763.8,2418.8,761.2,2423.9z M649.5,2465.2c-0.6-5-1-9.3-1.8-13.5c-0.8-5-1.8-10-3.1-14.9c-1-3.7-2.5-3.5-4.8-0.7
		c-2,2.4-4.3,4.6-6.7,6.3c-2,1.3-2.4,2.6-1.5,4.9c2.8,7,7,12.3,12.7,15.9C645.9,2464.1,647.6,2464.4,649.5,2465.2z M658.2,2406
		c-3.5-1.5-4.9-4.9-6.2-8.4c-0.5-1.2-1.8-2.7-3-2.8c-4.8-0.2-9.4,7.3-7.7,12.5c0.6,1.7,3.2,3.8,4.7,3.4
		C650,2409.8,654,2407.7,658.2,2406z M669.2,2458.8c0.8-0.7,0.4-1.2-0.2-1.7c-1.7-1.2-3.7-1.5-5.7-1.6c-0.4,0-0.9,2.9-1.2,4.4
		c-0.3,1.6,0.9,2.9,1.5,2C664.5,2459.9,667.2,2459.9,669.2,2458.8z"/>
</mask>
<path class="st4" d="M761.2,2423.9c3.7-0.6,6.5-2.7,8.9-6.5c4.8-7.6,10.1-14.6,17-19.8c3.2-2.4,4.7-6.6,4.2-11.4
	c-0.6-5.6,0.1-7.3,4.7-9.2c4.2-1.7,8.6-2.8,12.6-5.1c5.8-3.3,11.2-7.6,16.9-11.1c5.2-3.3,10.4-6.6,15.9-9.2
	c9.3-4.3,18.6-7.8,28-11.8c1.7-0.7,2.5-0.6,3.3,1.6c1.1,2.8,2.7,5.5,4.3,8.2c1.8,3.1,1.9,6,0.2,9.3c-2.2,4.3-4.2,8.7-6.4,12.9
	c-0.4,0.7-1.6,1.2-2.4,1.3c-15.6,0.4-30.9,2.9-46.1,6.3c-2.3,0.5-4.6,1-6.9,1.6c-3.5,0.9-6.8,2.6-9.4,5.9c-1.6,2-3.7,3.2-5.4,5
	c-1.2,1.2-2.4,2.7-3.2,4.3c-4.4,8.7-8.7,17.2-12.7,26.1c-4.3,9.8-10.4,15.5-20,16.7c-10.6,1.5-21,4-31.5,6.1
	c-3,0.6-8.5,3.4-11.9,4.6c-0.3,0.1-11.6,4.5-22.2,6c-7.7,1.1-14.4,2.8-21.7,0c-1.9-0.7-3.6,4.2-5.2,6.1c-2,2.6-4.9,4.3-7.7,5.7
	c-2,1.1-3.1,2-3.1,4.9c-0.1,5-3,7.7-6.7,9.3c-7.1,2.9-14,5.9-21.2,8.5c-5.5,2-10,5.5-13.4,10.7c-0.8,1.2-3.5,0.9-3.6-0.2
	c-0.2-1-0.3-2.4-0.8-2.7c-0.7-0.2-2,0-2.6,0.6c-1.7,1.5-3.2,3.3-4.9,4.9c-0.9,0.9-1.9,1.7-2.9,2.1c-2.2,0.7-3.5-0.9-2.5-3.1
	c1.6-3.4,3.7-6.3,5.6-9.5c2.1-3.4,4.9-4.3,8.3-4.4c5.2-0.2,9.9-2.3,14.2-5.9c5.4-4.5,10.9-9,17.7-10.7c0.4-0.1,0.8-0.5,1.9-1.1
	c-1.2-0.9-2-1.6-2.8-2c-7.9-3.5-13.9-9.6-18.2-18.2c-0.4-1-1.6-1.5-2.4-2.1c-0.5-0.4-1.1-0.2-1.7-0.6c-1.5-1.1-2.3-6-1.4-7.3
	c0.9-1.2-1.7-3.9-3.8-3.8c-4.4,0-4.9-1.7-6.1-6c-0.7-2.4-2-4,0.2-5.2c1.6-0.9,1.2-2.1,0.9-3.9c-0.6-3.9-0.5-7.8,1.1-11.1
	c5.1-10.6,12.4-11.8,19.8-6.3c1.5,1.1,2.3,2.9,4.1,5.1c-0.4-2.4-0.8-3.9-0.8-5.4c0.1-6.5,4.1-11.4,9.7-11.6c2.2-0.1,3.5-0.5,4-3.5
	c0.4-3.7,5-7,9.5-7.1c6.7-0.1,13.4,0.2,20.1,0.5c14.1,0.5,28.3,1.2,42.4,1.7c6.3,0.2,7.2,1.1,7,8.5c-0.1,3.8-0.4,7.4-0.7,11.2
	c-0.3,4.5-1.6,5.7-5.4,5.6c-11.4-0.4-22.9-0.7-34.2-1.1c-1.2,0-2.4,0-3.6,0.5c6.5,2.8,12.7,10,20.2,8.1c10.2-2.7,20.7-6.5,31.1-5.1
	c3.1,0.4,6.1,0.5,9.3,0.9c2,0.2,3.3-0.7,3.6-2.9c1-9.4,6.8-15.1,11.6-21.5c2.7-3.5,5.7-6.7,8.5-10.3c0.8-1,1.2-2.7,1.2-4.1
	c0-3.3-0.4-6.6-0.6-9.9c-0.2-2.7,0.6-4.9,2.6-6.5c7.5-6,12.7-14.4,17.7-22.9c5.4-9.3,10.2-19.2,16-28.1c4.8-7.4,10.5-14,15.9-20.9
	c0.4-0.5,2.2-0.4,2.3-0.1c1.4,4,4.8,5.1,7.5,7.3c0.3,0.2,0.6,0.5,0.9,0.7c4,2.3,6,5.5,4.7,11.1c-0.6,2.3-0.1,5.2,0.3,7.7
	c0.3,2.1-0.3,2.7-1.7,3.7c-15.9,11.1-32.2,21.4-45.6,36.6c-5,5.6-7.3,12.9-10,20.3c-4.5,12-9,23.9-13.9,35.6
	C766.7,2413.9,763.8,2418.8,761.2,2423.9z M649.5,2465.2c-0.6-5-1-9.3-1.8-13.5c-0.8-5-1.8-10-3.1-14.9c-1-3.7-2.5-3.5-4.8-0.7
	c-2,2.4-4.3,4.6-6.7,6.3c-2,1.3-2.4,2.6-1.5,4.9c2.8,7,7,12.3,12.7,15.9C645.9,2464.1,647.6,2464.4,649.5,2465.2z M658.2,2406
	c-3.5-1.5-4.9-4.9-6.2-8.4c-0.5-1.2-1.8-2.7-3-2.8c-4.8-0.2-9.4,7.3-7.7,12.5c0.6,1.7,3.2,3.8,4.7,3.4
	C650,2409.8,654,2407.7,658.2,2406z M669.2,2458.8c0.8-0.7,0.4-1.2-0.2-1.7c-1.7-1.2-3.7-1.5-5.7-1.6c-0.4,0-0.9,2.9-1.2,4.4
	c-0.3,1.6,0.9,2.9,1.5,2C664.5,2459.9,667.2,2459.9,669.2,2458.8z"/>
</svg>
