<?xml version="1.0" encoding="utf-8"?>
<!-- Generator: Adobe Illustrator 27.5.0, SVG Export Plug-In . SVG Version: 6.00 Build 0)  -->
<svg version="1.1" id="Layer_1" xmlns="http://www.w3.org/2000/svg" xmlns:xlink="http://www.w3.org/1999/xlink" x="0px" y="0px"
	 viewBox="0 0 520 219.4" style="enable-background:new 0 0 520 219.4;" xml:space="preserve">
<style type="text/css">
	.st0{fill:#FFFFFF;}
	.st1{font-family:'AcademyEngravedLetPlain';}
	.st2{font-size:48px;}
</style>
<g>
	<g>
	</g>
</g>
<text transform="matrix(1 0 0 1 240.1627 157.5236)" class="st0 st1 st2">Dykkercenter</text>
<text transform="matrix(1 0 0 1 40.1301 76.1083)" class="st0 st1 st2">Carlsens</text>
<g>
	<path class="st0" d="M199.9,138.3c3.6-0.5,6.3-2.2,8.6-5.3c4.6-6.2,9.7-12,16.4-16.2c3.1-2,4.5-5.4,4-9.3c-0.6-4.6,0.1-6,4.5-7.5
		c4-1.4,8.3-2.3,12.1-4.2c5.6-2.7,10.8-6.2,16.3-9.1c5-2.7,10-5.4,15.3-7.5c8.9-3.5,17.9-6.4,26.9-9.7c1.6-0.6,2.4-0.5,3.2,1.3
		c1.1,2.3,2.6,4.5,4.1,6.7c1.7,2.5,1.8,4.9,0.2,7.6c-2.1,3.5-4,7.1-6.2,10.6c-0.4,0.6-1.5,1-2.3,1.1c-15,0.3-29.7,2.4-44.3,5.2
		c-2.2,0.4-4.4,0.8-6.6,1.3c-3.4,0.7-6.5,2.1-9,4.8c-1.5,1.6-3.6,2.6-5.2,4.1c-1.2,1-2.3,2.2-3.1,3.5c-4.2,7.1-8.4,14.1-12.2,21.4
		c-4.1,8-10,12.7-19.2,13.7c-10.2,1.2-20.2,3.3-30.3,5c-2.9,0.5-5.2,1.8-7.1,3.8c0.1,0.3-15.6,9.5-25.9,10.8
		c-7.4,0.9-14.5,0.2-21.5-2.1c-1.8-0.6-2.7-0.3-4.2,1.2c-1.9,2.1-4.7,3.5-7.4,4.7c-1.9,0.9-3,1.6-3,4c-0.1,4.1-2.9,6.3-6.4,7.6
		c-6.8,2.4-13.5,4.8-20.4,7c-5.3,1.6-9.6,4.5-12.9,8.8c-0.8,1-3.4,0.7-3.5-0.2c-0.2-0.8-0.3-2-0.8-2.2c-0.7-0.2-1.9,0-2.5,0.5
		c-1.6,1.2-3.1,2.7-4.7,4c-0.9,0.7-1.8,1.4-2.8,1.7c-2.1,0.6-3.4-0.7-2.4-2.5c1.5-2.8,3.6-5.2,5.4-7.8c2-2.8,4.7-3.5,8-3.6
		c5-0.2,9.5-1.9,13.7-4.8c5.2-3.7,10.5-7.4,17-8.8c0.4-0.1,0.8-0.4,1.8-0.9c-1.2-0.7-1.9-1.3-2.7-1.6c-7.6-2.9-13.4-7.9-17.5-14.9
		c-0.4-0.8-1.5-1.2-2.3-1.7c-0.5-0.3-1.1-0.2-1.6-0.5c-1.4-0.9-2.2-4.9-1.3-6c0.9-1-1.6-3.2-3.7-3.1c-4.2,0-4.7-1.4-5.9-4.9
		c-0.7-2-1.9-3.3,0.2-4.3c1.5-0.7,1.2-1.7,0.9-3.2c-0.6-3.2-0.5-6.4,1.1-9.1c4.9-8.7,11.9-9.7,19-5.2c1.4,0.9,2.2,2.4,3.9,4.2
		c-0.4-2-0.8-3.2-0.8-4.4c0.1-5.3,3.9-9.3,9.3-9.5c2.1-0.1,3.4-0.4,3.8-2.9c0.4-3,4.8-5.7,9.1-5.8c6.4-0.1,12.9,0.2,19.3,0.4
		c13.6,0.4,27.2,1,40.8,1.4c6.1,0.2,6.9,0.9,6.7,7c-0.1,3.1-0.4,6.1-0.7,9.2c-0.3,3.7-1.5,4.7-5.2,4.6c-11-0.3-22-0.6-32.9-0.9
		c-1.2,0-2.3,0-3.5,0.4c6.3,2.3,12.2,8.2,19.4,6.6c9.8-2.2,19.9-5.3,29.9-4.2c3,0.3,5.9,0.4,8.9,0.7c1.9,0.2,3.2-0.6,3.5-2.4
		c1-7.7,6.5-12.4,11.2-17.6c2.6-2.9,5.5-5.5,8.2-8.4c0.8-0.8,1.2-2.2,1.2-3.4c0-2.7-0.4-5.4-0.6-8.1c-0.2-2.2,0.6-4,2.5-5.3
		c7.2-4.9,12.2-11.8,17-18.8c5.2-7.6,9.8-15.7,15.4-23c4.6-6.1,10.1-11.5,15.3-17.1c0.4-0.4,2.1-0.3,2.2-0.1c1.3,3.3,4.6,4.2,7.2,6
		c0.3,0.2,0.6,0.4,0.9,0.6c3.8,1.9,5.8,4.5,4.5,9.1c-0.6,1.9-0.1,4.3,0.3,6.3c0.3,1.7-0.3,2.2-1.6,3c-15.3,9.1-31,17.5-43.9,30
		c-4.8,4.6-7,10.6-9.6,16.6c-4.3,9.8-8.7,19.6-13.4,29.2C205.3,130.1,202.4,134.1,199.9,138.3z M92.5,172.1c-0.6-4.1-1-7.6-1.7-11.1
		c-0.8-4.1-1.7-8.2-3-12.2c-1-3-2.4-2.9-4.6-0.6c-1.9,2-4.1,3.8-6.4,5.2c-1.9,1.1-2.3,2.1-1.4,4c2.7,5.7,6.7,10.1,12.2,13
		C89,171.1,90.7,171.5,92.5,172.1z M101,123.6c-3.4-1.2-4.7-4-6-6.9c-0.5-1-1.7-2.2-2.9-2.3c-4.6-0.2-9,6-7.4,10.2
		c0.6,1.4,3.1,3.1,4.5,2.8C93.1,126.6,96.8,125,101,123.6z M111.4,166.9c0.8-0.6,0.4-1-0.2-1.4c-1.6-1-3.6-1.2-5.5-1.3
		c-0.4,0-0.9,2.4-1.2,3.6c-0.3,1.3,0.9,2.4,1.4,1.6C106.9,167.8,109.6,167.8,111.4,166.9z"/>
</g>
</svg>
